<?xml version="1.0" encoding="utf-8"?>
<!-- Generator: Adobe Illustrator 24.1.1, SVG Export Plug-In . SVG Version: 6.00 Build 0)  -->
<svg version="1.1" id="Layer_1" xmlns="http://www.w3.org/2000/svg" xmlns:xlink="http://www.w3.org/1999/xlink" x="0px" y="0px"
	 viewBox="0 0 512 512" style="enable-background:new 0 0 512 512;" xml:space="preserve">
<g>
	<path d="M76.2,394.8c0-3,0-5.3,0.2-6.7v-1.9v-1.4v-1.2v-1.2v-0.9v-0.5l0.5-2.8l0.5-2.1v-0.7v-1.2v-0.9l1.9-8.6l0.2-0.5V364l0.9-3.2
		l0.2-0.5l0.2-0.7v-0.7c0.9-2.8,1.6-5.1,2.3-6.5l0.5-0.7l1.2-3.5c3.9-8.8,8.8-17.1,14.6-25l1.4-1.6l0.7-0.9l0.7-0.9l1.6-1.4l0.9-1.4
		l0.9-1.4l1.6-1.6l1.6-1.4l1.6-1.6l176.1-193l-8.8,51L435.8,0l-96.8,188.6l96.8-73.2L348,291.4l62.8-43.3l-108.4,193l-0.5,0.9
		l-0.7,1.2l-0.5,0.9l-0.5,1.2l-0.5,1.2l-0.5,1.2c-10,19.5-24.3,35-43.1,46.8c-18.8,11.8-39.4,17.6-61.9,17.6
		c-21.3,0-41-5.3-59.1-15.7c-18.1-10.7-32.4-24.8-43.1-43.1C81.6,434.9,76.2,416.1,76.2,394.8z M104,394.8c0,25,8.8,46.1,26.4,63.7
		c17.6,17.6,38.9,26.4,63.7,26.4c19,0,36.1-5.6,51.4-16.4c15.3-10.9,26.2-25.2,32.7-42.6c3.9-10,5.8-20.2,5.8-31
		c0-24.8-8.8-46.1-26.2-63.7c-17.6-17.6-38.7-26.2-63.7-26.2c-23.2,0-43.3,7.6-60.2,23.2c-9.5,8.3-16.7,18.1-22,29.7
		C106.6,369.5,104,381.8,104,394.8z"/>
</g>
</svg>
